<svg xmlns="http://www.w3.org/2000/svg" version="1.1" width="1000" height="1000"><g clip-path="url(#ClipPath1124)"><rect width="1000" height="1000" fill="#0d0d0d"></rect><g transform="matrix(21.875,0,0,21.875,150,150)"><svg xmlns="http://www.w3.org/2000/svg" version="1.1" width="32" height="32"><svg width="32" height="32" viewBox="0 0 32 32" fill="none" xmlns="http://www.w3.org/2000/svg">
<path d="M31.9469 9.90247C31.7034 9.089 30.6925 8.58985 29.6897 8.78703L12.8327 12.1042L9.78104 7.62039L14.1494 8.30123C14.7278 8.39148 15.3125 8.17866 15.6149 7.77123C15.9181 7.36289 15.8748 6.84457 15.5067 6.47299L10.9931 1.91869C10.5684 1.49014 9.83871 1.37723 9.25859 1.62C9.5088 2.33022 9.48301 3.07227 9.21428 3.75297L10.9304 5.48456L8.28977 5.07296L4.98845 10.5687L7.14948 5.26431C7.39233 4.66824 6.99327 4.02541 6.25813 3.8285C5.52299 3.63138 4.73018 3.95523 4.48734 4.5513L2.85776 8.55122L3.25168 6.06118C3.24962 6.06056 3.24757 6.05979 3.24551 6.0591L1.09853 7.0198C0.547713 7.32628 -0.13027 7.83835 0.021659 8.58589L1.03444 13.4471C1.14815 13.9931 1.73127 14.3944 2.4174 14.3944C3.01774 14.3944 3.55699 14.0825 3.74774 13.6142L3.89444 13.2541L5.87184 16.3565V30.4845C5.87184 31.3215 6.70869 32 7.74092 32C8.77315 32 9.61009 31.3215 9.61009 30.4845V15.8629C9.61009 15.8629 9.84171 15.8119 30.5713 11.7327C31.5745 11.5353 32.1902 10.7159 31.9469 9.90247Z" fill="white"></path>
<path d="M3.51721 5.01092L3.68876 4.33266C3.93958 3.34089 5.13445 2.70174 6.3576 2.90511C6.99702 3.01142 7.51707 3.32714 7.8325 3.74569C8.25641 3.00975 8.25616 2.12547 7.73516 1.35987C7.14381 0.491018 6.03514 0 4.89203 0C4.36186 0 3.82458 0.105471 3.32758 0.327878C1.75901 1.02977 1.18908 2.62976 2.05473 3.9016C2.39878 4.40707 2.91832 4.78344 3.51721 5.01092Z" fill="white"></path>
</svg></svg></g></g><defs><clipPath id="ClipPath1124"><rect width="1000" height="1000" x="0" y="0" rx="200" ry="200"></rect></clipPath></defs></svg>