<svg width="160" height="40" viewBox="0 0 160 40" fill="none" xmlns="http://www.w3.org/2000/svg">
<g clip-path="url(#clip0_1_8)">
<path d="M39.3239 17.7102C39.2784 17.2519 39.0833 16.8958 38.7386 16.642C38.3939 16.3883 37.9261 16.2614 37.3352 16.2614C36.9337 16.2614 36.5947 16.3182 36.3182 16.4318C36.0417 16.5417 35.8295 16.6951 35.6818 16.892C35.5379 17.089 35.4659 17.3125 35.4659 17.5625C35.4583 17.7708 35.5019 17.9527 35.5966 18.108C35.6951 18.2633 35.8295 18.3977 36 18.5114C36.1705 18.6212 36.3674 18.7178 36.5909 18.8011C36.8144 18.8807 37.053 18.9489 37.3068 19.0057L38.3523 19.2557C38.8598 19.3693 39.3258 19.5208 39.75 19.7102C40.1742 19.8996 40.5417 20.1326 40.8523 20.4091C41.1629 20.6856 41.4034 21.0114 41.5739 21.3864C41.7481 21.7614 41.8371 22.1913 41.8409 22.6761C41.8371 23.3883 41.6553 24.0057 41.2955 24.5284C40.9394 25.0473 40.4242 25.4508 39.75 25.7386C39.0795 26.0227 38.2708 26.1648 37.3239 26.1648C36.3845 26.1648 35.5663 26.0208 34.8693 25.733C34.1761 25.4451 33.6345 25.0189 33.2443 24.4545C32.858 23.8864 32.6553 23.1837 32.6364 22.3466H35.017C35.0436 22.7367 35.1553 23.0625 35.3523 23.3239C35.553 23.5814 35.8201 23.7765 36.1534 23.9091C36.4905 24.0379 36.8712 24.1023 37.2955 24.1023C37.7121 24.1023 38.0739 24.0417 38.3807 23.9205C38.6913 23.7992 38.9318 23.6307 39.1023 23.4148C39.2727 23.1989 39.358 22.9508 39.358 22.6705C39.358 22.4091 39.2803 22.1894 39.125 22.0114C38.9735 21.8333 38.75 21.6818 38.4545 21.5568C38.1629 21.4318 37.8049 21.3182 37.3807 21.2159L36.1136 20.8977C35.1326 20.6591 34.358 20.286 33.7898 19.7784C33.2216 19.2708 32.9394 18.5871 32.9432 17.7273C32.9394 17.0227 33.1269 16.4072 33.5057 15.8807C33.8883 15.3542 34.4129 14.9432 35.0795 14.6477C35.7462 14.3523 36.5038 14.2045 37.3523 14.2045C38.2159 14.2045 38.9697 14.3523 39.6136 14.6477C40.2614 14.9432 40.7652 15.3542 41.125 15.8807C41.4848 16.4072 41.6705 17.017 41.6818 17.7102H39.3239ZM45.956 14.3636V26H43.4957V14.3636H45.956ZM47.9801 26V14.3636H55.821V16.392H50.4403V19.1648H55.4176V21.1932H50.4403V23.9716H55.8438V26H47.9801ZM65.4929 18.125C65.4134 17.8485 65.3016 17.6042 65.1577 17.392C65.0137 17.1761 64.8376 16.9943 64.6293 16.8466C64.4247 16.6951 64.1899 16.5795 63.9247 16.5C63.6634 16.4205 63.3736 16.3807 63.0554 16.3807C62.4607 16.3807 61.938 16.5284 61.4872 16.8239C61.0402 17.1193 60.6918 17.5492 60.4418 18.1136C60.1918 18.6742 60.0668 19.3598 60.0668 20.1705C60.0668 20.9811 60.1899 21.6705 60.4361 22.2386C60.6823 22.8068 61.0308 23.2405 61.4815 23.5398C61.9323 23.8352 62.4645 23.983 63.0781 23.983C63.6349 23.983 64.1103 23.8845 64.5043 23.6875C64.902 23.4867 65.205 23.2045 65.4134 22.8409C65.6255 22.4773 65.7315 22.0473 65.7315 21.5511L66.2315 21.625H63.2315V19.7727H68.1009V21.2386C68.1009 22.2614 67.8849 23.1402 67.4531 23.875C67.0213 24.6061 66.4266 25.1705 65.669 25.5682C64.9115 25.9621 64.044 26.1591 63.0668 26.1591C61.9759 26.1591 61.0175 25.9186 60.1918 25.4375C59.366 24.9527 58.7221 24.2652 58.2599 23.375C57.8016 22.4811 57.5724 21.4205 57.5724 20.1932C57.5724 19.25 57.7088 18.4091 57.9815 17.6705C58.258 16.928 58.6444 16.2992 59.1406 15.7841C59.6368 15.2689 60.2145 14.8769 60.8736 14.608C61.5327 14.339 62.2467 14.2045 63.0156 14.2045C63.6747 14.2045 64.2884 14.3011 64.8565 14.4943C65.4247 14.6837 65.9285 14.9527 66.3679 15.3011C66.8111 15.6496 67.1728 16.0644 67.4531 16.5455C67.7334 17.0227 67.9134 17.5492 67.9929 18.125H65.4929ZM80.642 20.1818C80.642 21.4508 80.4015 22.5303 79.9205 23.4205C79.4432 24.3106 78.7917 24.9905 77.9659 25.4602C77.1439 25.9261 76.2197 26.1591 75.1932 26.1591C74.1591 26.1591 73.2311 25.9242 72.4091 25.4545C71.5871 24.9848 70.9375 24.3049 70.4602 23.4148C69.983 22.5246 69.7443 21.447 69.7443 20.1818C69.7443 18.9129 69.983 17.8333 70.4602 16.9432C70.9375 16.053 71.5871 15.375 72.4091 14.9091C73.2311 14.4394 74.1591 14.2045 75.1932 14.2045C76.2197 14.2045 77.1439 14.4394 77.9659 14.9091C78.7917 15.375 79.4432 16.053 79.9205 16.9432C80.4015 17.8333 80.642 18.9129 80.642 20.1818ZM78.1477 20.1818C78.1477 19.3598 78.0246 18.6667 77.7784 18.1023C77.536 17.5379 77.1932 17.1098 76.75 16.8182C76.3068 16.5265 75.7879 16.3807 75.1932 16.3807C74.5985 16.3807 74.0795 16.5265 73.6364 16.8182C73.1932 17.1098 72.8485 17.5379 72.6023 18.1023C72.3598 18.6667 72.2386 19.3598 72.2386 20.1818C72.2386 21.0038 72.3598 21.697 72.6023 22.2614C72.8485 22.8258 73.1932 23.2538 73.6364 23.5455C74.0795 23.8371 74.5985 23.983 75.1932 23.983C75.7879 23.983 76.3068 23.8371 76.75 23.5455C77.1932 23.2538 77.536 22.8258 77.7784 22.2614C78.0246 21.697 78.1477 21.0038 78.1477 20.1818ZM92.7315 18.4375H90.2429C90.1974 18.1155 90.1046 17.8295 89.9645 17.5795C89.8243 17.3258 89.6444 17.1098 89.4247 16.9318C89.205 16.7538 88.9512 16.6174 88.6634 16.5227C88.3793 16.428 88.0705 16.3807 87.7372 16.3807C87.1349 16.3807 86.6103 16.5303 86.1634 16.8295C85.7164 17.125 85.3698 17.5568 85.1236 18.125C84.8774 18.6894 84.7543 19.375 84.7543 20.1818C84.7543 21.0114 84.8774 21.7083 85.1236 22.2727C85.3736 22.8371 85.7221 23.2633 86.169 23.5511C86.616 23.839 87.133 23.983 87.7202 23.983C88.0497 23.983 88.3546 23.9394 88.6349 23.8523C88.919 23.7652 89.1709 23.6383 89.3906 23.4716C89.6103 23.3011 89.7921 23.0947 89.9361 22.8523C90.0838 22.6098 90.1861 22.3333 90.2429 22.0227L92.7315 22.0341C92.6671 22.5682 92.5062 23.0833 92.2486 23.5795C91.9948 24.072 91.652 24.5133 91.2202 24.9034C90.7921 25.2898 90.2808 25.5966 89.6861 25.8239C89.0952 26.0473 88.4266 26.1591 87.6804 26.1591C86.6425 26.1591 85.7145 25.9242 84.8963 25.4545C84.0819 24.9848 83.438 24.3049 82.9645 23.4148C82.4948 22.5246 82.2599 21.447 82.2599 20.1818C82.2599 18.9129 82.4986 17.8333 82.9759 16.9432C83.4531 16.053 84.1009 15.375 84.919 14.9091C85.7372 14.4394 86.6577 14.2045 87.6804 14.2045C88.3546 14.2045 88.9796 14.2992 89.5554 14.4886C90.1349 14.678 90.6482 14.9545 91.0952 15.3182C91.5421 15.678 91.9058 16.1193 92.1861 16.642C92.4702 17.1648 92.652 17.7633 92.7315 18.4375ZM94.3707 26V24.5398L100.178 16.392H94.3594V14.3636H103.268V15.8239L97.456 23.9716H103.28V26H94.3707ZM104.486 14.3636H107.241L109.895 19.375H110.009L112.662 14.3636H115.418L111.173 21.8864V26H108.73V21.8864L104.486 14.3636ZM126.494 14.3636V26H124.369L119.307 18.6761H119.222V26H116.761V14.3636H118.92L123.943 21.6818H124.045V14.3636H126.494ZM134.839 17.7102C134.794 17.2519 134.599 16.8958 134.254 16.642C133.91 16.3883 133.442 16.2614 132.851 16.2614C132.449 16.2614 132.11 16.3182 131.834 16.4318C131.557 16.5417 131.345 16.6951 131.197 16.892C131.054 17.089 130.982 17.3125 130.982 17.5625C130.974 17.7708 131.018 17.9527 131.112 18.108C131.211 18.2633 131.345 18.3977 131.516 18.5114C131.686 18.6212 131.883 18.7178 132.107 18.8011C132.33 18.8807 132.569 18.9489 132.822 19.0057L133.868 19.2557C134.375 19.3693 134.841 19.5208 135.266 19.7102C135.69 19.8996 136.057 20.1326 136.368 20.4091C136.679 20.6856 136.919 21.0114 137.089 21.3864C137.264 21.7614 137.353 22.1913 137.357 22.6761C137.353 23.3883 137.171 24.0057 136.811 24.5284C136.455 25.0473 135.94 25.4508 135.266 25.7386C134.595 26.0227 133.786 26.1648 132.839 26.1648C131.9 26.1648 131.082 26.0208 130.385 25.733C129.692 25.4451 129.15 25.0189 128.76 24.4545C128.374 23.8864 128.171 23.1837 128.152 22.3466H130.533C130.559 22.7367 130.671 23.0625 130.868 23.3239C131.069 23.5814 131.336 23.7765 131.669 23.9091C132.006 24.0379 132.387 24.1023 132.811 24.1023C133.228 24.1023 133.589 24.0417 133.896 23.9205C134.207 23.7992 134.447 23.6307 134.618 23.4148C134.788 23.1989 134.874 22.9508 134.874 22.6705C134.874 22.4091 134.796 22.1894 134.641 22.0114C134.489 21.8333 134.266 21.6818 133.97 21.5568C133.679 21.4318 133.321 21.3182 132.896 21.2159L131.629 20.8977C130.648 20.6591 129.874 20.286 129.305 19.7784C128.737 19.2708 128.455 18.5871 128.459 17.7273C128.455 17.0227 128.643 16.4072 129.021 15.8807C129.404 15.3542 129.929 14.9432 130.595 14.6477C131.262 14.3523 132.019 14.2045 132.868 14.2045C133.732 14.2045 134.485 14.3523 135.129 14.6477C135.777 14.9432 136.281 15.3542 136.641 15.8807C137 16.4072 137.186 17.017 137.197 17.7102H134.839ZM139.011 26V14.3636H141.472V19.4943H141.625L145.812 14.3636H148.761L144.443 19.5739L148.812 26H145.869L142.682 21.2159L141.472 22.6932V26H139.011ZM152.503 14.3636V26H150.043V14.3636H152.503Z" fill="white"/>
<path d="M31.9469 13.9025C31.7034 13.089 30.6925 12.5898 29.6897 12.787L12.8327 16.1042L9.78104 11.6204L14.1494 12.3012C14.7278 12.3915 15.3125 12.1787 15.6149 11.7712C15.9181 11.3629 15.8748 10.8446 15.5067 10.473L10.9931 5.91869C10.5684 5.49014 9.83871 5.37723 9.25859 5.62C9.5088 6.33022 9.48301 7.07227 9.21428 7.75297L10.9304 9.48456L8.28977 9.07296L4.98845 14.5687L7.14948 9.26431C7.39233 8.66824 6.99327 8.02541 6.25813 7.8285C5.52299 7.63138 4.73018 7.95523 4.48734 8.5513L2.85776 12.5512L3.25168 10.0612C3.24962 10.0606 3.24757 10.0598 3.24551 10.0591L1.09853 11.0198C0.547713 11.3263 -0.13027 11.8383 0.021659 12.5859L1.03444 17.4471C1.14815 17.9931 1.73127 18.3944 2.4174 18.3944C3.01774 18.3944 3.55699 18.0825 3.74774 17.6142L3.89444 17.2541L5.87184 20.3565V34.4845C5.87184 35.3215 6.70869 36 7.74092 36C8.77315 36 9.61009 35.3215 9.61009 34.4845V19.8629C9.61009 19.8629 9.84171 19.8119 30.5713 15.7327C31.5745 15.5353 32.1902 14.7159 31.9469 13.9025Z" fill="white"/>
<path d="M3.51721 9.01092L3.68876 8.33266C3.93958 7.34089 5.13445 6.70174 6.3576 6.90511C6.99702 7.01142 7.51707 7.32714 7.8325 7.74569C8.25641 7.00975 8.25616 6.12547 7.73516 5.35987C7.14381 4.49102 6.03514 4 4.89203 4C4.36186 4 3.82458 4.10547 3.32758 4.32788C1.75901 5.02977 1.18908 6.62976 2.05473 7.9016C2.39878 8.40707 2.91832 8.78344 3.51721 9.01092Z" fill="white"/>
</g>
<defs>
<clipPath id="clip0_1_8">
<rect width="160" height="40" fill="white"/>
</clipPath>
</defs>
</svg>
